<?xml version="1.0" encoding="UTF-8" standalone="no"?>
<!-- Created with Inkscape (http://www.inkscape.org/) -->

<svg
   xmlns:dc="http://purl.org/dc/elements/1.1/"
   xmlns:cc="http://creativecommons.org/ns#"
   xmlns:rdf="http://www.w3.org/1999/02/22-rdf-syntax-ns#"
   xmlns:svg="http://www.w3.org/2000/svg"
   xmlns="http://www.w3.org/2000/svg"
   xmlns:sodipodi="http://sodipodi.sourceforge.net/DTD/sodipodi-0.dtd"
   xmlns:inkscape="http://www.inkscape.org/namespaces/inkscape"
   width="416.01553"
   height="592.31421"
   id="svg2985"
   version="1.1"
   inkscape:version="0.48.4 r9939"
   sodipodi:docname="New document 2">
  <defs
     id="defs2987">
    <inkscape:path-effect
       effect="skeletal"
       id="path-effect3772"
       is_visible="true"
       pattern="M 0,0 0,10 10,5 z"
       copytype="single_stretched"
       prop_scale="1"
       scale_y_rel="false"
       spacing="0"
       normal_offset="0"
       tang_offset="0"
       prop_units="false"
       vertical_pattern="false"
       fuse_tolerance="0" />
  </defs>
  <sodipodi:namedview
     inkscape:document-units="in"
     pagecolor="#ffffff"
     bordercolor="#666666"
     borderopacity="1.0"
     inkscape:pageopacity="0.0"
     inkscape:pageshadow="2"
     inkscape:zoom="0.47914063"
     inkscape:cx="309.29544"
     inkscape:cy="304.05494"
     inkscape:current-layer="layer1"
     id="namedview2989"
     showgrid="false"
     units="in"
     fit-margin-top="0.5"
     fit-margin-left="0.5"
     fit-margin-right="0.5"
     fit-margin-bottom="0.5"
     inkscape:window-width="1366"
     inkscape:window-height="741"
     inkscape:window-x="0"
     inkscape:window-y="-5"
     inkscape:window-maximized="1" />
  <metadata
     id="metadata2991">
    <rdf:RDF>
      <cc:Work
         rdf:about="">
        <dc:format>image/svg+xml</dc:format>
        <dc:type
           rdf:resource="http://purl.org/dc/dcmitype/StillImage" />
        <dc:title></dc:title>
      </cc:Work>
    </rdf:RDF>
  </metadata>
  <g
     inkscape:label="Layer 1"
     inkscape:groupmode="layer"
     id="layer1"
     transform="translate(-4.8588409,-183.49825)">
    <text
       xml:space="preserve"
       style="font-size:24px;font-style:normal;font-weight:normal;line-height:125%;letter-spacing:0px;word-spacing:0px;fill:#000000;fill-opacity:1;stroke:none;font-family:Sans"
       x="98.373268"
       y="730.4726"
       id="text4087"
       sodipodi:linespacing="125%"><tspan
         sodipodi:role="line"
         id="tspan4089"
         x="98.373268"
         y="730.4726">master branch</tspan></text>
    <text
       xml:space="preserve"
       style="font-size:24px;font-style:normal;font-weight:normal;line-height:125%;letter-spacing:0px;word-spacing:0px;fill:#cb00f6;fill-opacity:1;stroke:none;font-family:Sans"
       x="118.67125"
       y="649.19104"
       id="text4091"
       sodipodi:linespacing="125%"><tspan
         sodipodi:role="line"
         id="tspan4093"
         x="118.67125"
         y="649.19104">v6.0</tspan></text>
    <text
       xml:space="preserve"
       style="font-size:24px;font-style:normal;font-weight:normal;line-height:125%;letter-spacing:0px;word-spacing:0px;fill:#cb00f6;fill-opacity:1;stroke:none;font-family:Sans"
       x="118.9818"
       y="539.18457"
       id="text4095"
       sodipodi:linespacing="125%"><tspan
         sodipodi:role="line"
         id="tspan4097"
         x="118.9818"
         y="539.18457">v6.1</tspan></text>
    <text
       xml:space="preserve"
       style="font-size:24px;font-style:normal;font-weight:normal;line-height:125%;letter-spacing:0px;word-spacing:0px;fill:#cb00f6;fill-opacity:1;stroke:none;font-family:Sans"
       x="-675.18097"
       y="68.093216"
       id="text4487"
       sodipodi:linespacing="125%"
       transform="matrix(0,-1,1,0,0,0)"><tspan
         sodipodi:role="line"
         id="tspan4489"
         x="-675.18097"
         y="68.093216">tags (vanilla import)</tspan></text>
    <g
       id="g4892">
      <path
         inkscape:connector-curvature="0"
         id="path4493"
         d="m 186.20652,422.34665 0.32567,104.51158"
         style="fill:none;stroke:#000000;stroke-width:1.00507629px;stroke-linecap:butt;stroke-linejoin:miter;stroke-opacity:1" />
      <path
         sodipodi:type="arc"
         style="fill:#000000;fill-opacity:1;fill-rule:nonzero;stroke:none"
         id="path4017"
         sodipodi:cx="446.81183"
         sodipodi:cy="290.17029"
         sodipodi:rx="25.068649"
         sodipodi:ry="25.068649"
         d="m 471.88048,290.17029 c 0,13.84503 -11.22362,25.06865 -25.06865,25.06865 -13.84503,0 -25.06865,-11.22362 -25.06865,-25.06865 0,-13.84503 11.22362,-25.06865 25.06865,-25.06865 13.84503,0 25.06865,11.22362 25.06865,25.06865 z"
         transform="matrix(0.23420915,0,0,0.23420915,81.72194,575.97295)" />
      <path
         sodipodi:type="arc"
         style="fill:#000000;fill-opacity:1;fill-rule:nonzero;stroke:none"
         id="path4021"
         sodipodi:cx="446.81183"
         sodipodi:cy="290.17029"
         sodipodi:rx="25.068649"
         sodipodi:ry="25.068649"
         d="m 471.88048,290.17029 c 0,13.84503 -11.22362,25.06865 -25.06865,25.06865 -13.84503,0 -25.06865,-11.22362 -25.06865,-25.06865 0,-13.84503 11.22362,-25.06865 25.06865,-25.06865 13.84503,0 25.06865,11.22362 25.06865,25.06865 z"
         transform="matrix(0.23420915,0,0,0.23420915,81.72194,462.48772)" />
      <path
         sodipodi:type="arc"
         style="fill:#000000;fill-opacity:1;fill-rule:nonzero;stroke:none"
         id="path4025"
         sodipodi:cx="446.81183"
         sodipodi:cy="290.17029"
         sodipodi:rx="25.068649"
         sodipodi:ry="25.068649"
         d="m 471.88048,290.17029 c 0,13.84503 -11.22362,25.06865 -25.06865,25.06865 -13.84503,0 -25.06865,-11.22362 -25.06865,-25.06865 0,-13.84503 11.22362,-25.06865 25.06865,-25.06865 13.84503,0 25.06865,11.22362 25.06865,25.06865 z"
         transform="matrix(0.23420915,0,0,0.23420915,81.72194,349.00249)" />
      <path
         style="fill:#000000;fill-opacity:1;stroke:#000000;stroke-width:0.97729445px;stroke-linecap:butt;stroke-linejoin:miter;stroke-opacity:1"
         d="m 186.33336,649.41754 0.072,46.76249"
         id="path4041"
         inkscape:connector-curvature="0"
         sodipodi:nodetypes="cc" />
      <path
         style="fill:none;stroke:#000000;stroke-width:1.00507629px;stroke-linecap:butt;stroke-linejoin:miter;stroke-opacity:1"
         d="m 186.20652,534.34665 0.32567,104.51158"
         id="path4495"
         inkscape:connector-curvature="0" />
    </g>
    <g
       id="g5056">
      <text
         transform="matrix(0.70710678,-0.70710678,0.70710678,0.70710678,0,0)"
         sodipodi:linespacing="125%"
         id="text4483"
         y="616.07642"
         x="-247.36288"
         style="font-size:24px;font-style:normal;font-weight:normal;line-height:125%;letter-spacing:0px;word-spacing:0px;fill:#f00000;fill-opacity:1;stroke:none;font-family:Sans"
         xml:space="preserve"><tspan
           y="616.07642"
           x="-247.36288"
           id="tspan4485"
           sodipodi:role="line">6.0 branch</tspan></text>
      <g
         transform="matrix(0.70710678,0.70710678,-0.70710678,0.70710678,315.17123,-0.30232569)"
         id="g4794">
        <g
           transform="translate(0,207.83694)"
           id="g4796">
          <path
             style="fill:#f00000;fill-opacity:1;stroke:#f00000;stroke-width:1px;stroke-linecap:butt;stroke-linejoin:miter;stroke-opacity:1"
             d="m 364.71116,291.17691 -0.008,43.09952"
             id="path4798"
             inkscape:connector-curvature="0"
             sodipodi:nodetypes="cc" />
          <path
             sodipodi:type="arc"
             style="fill:#f00000;fill-opacity:1;fill-rule:nonzero;stroke:#f00000;stroke-opacity:1"
             id="path4800"
             sodipodi:cx="446.81183"
             sodipodi:cy="290.17029"
             sodipodi:rx="25.068649"
             sodipodi:ry="25.068649"
             d="m 471.88048,290.17029 c 0,13.84503 -11.22362,25.06865 -25.06865,25.06865 -13.84503,0 -25.06865,-11.22362 -25.06865,-25.06865 0,-13.84503 11.22362,-25.06865 25.06865,-25.06865 13.84503,0 25.06865,11.22362 25.06865,25.06865 z"
             transform="matrix(0.23420915,0,0,0.23420915,260.05975,220.84507)" />
        </g>
        <g
           transform="translate(0,155.87771)"
           id="g4802">
          <path
             sodipodi:nodetypes="cc"
             inkscape:connector-curvature="0"
             id="path4804"
             d="m 364.71116,291.17691 -0.008,43.09952"
             style="fill:#f00000;fill-opacity:1;stroke:#f00000;stroke-width:1px;stroke-linecap:butt;stroke-linejoin:miter;stroke-opacity:1" />
          <path
             transform="matrix(0.23420915,0,0,0.23420915,260.05975,220.84507)"
             d="m 471.88048,290.17029 c 0,13.84503 -11.22362,25.06865 -25.06865,25.06865 -13.84503,0 -25.06865,-11.22362 -25.06865,-25.06865 0,-13.84503 11.22362,-25.06865 25.06865,-25.06865 13.84503,0 25.06865,11.22362 25.06865,25.06865 z"
             sodipodi:ry="25.068649"
             sodipodi:rx="25.068649"
             sodipodi:cy="290.17029"
             sodipodi:cx="446.81183"
             id="path4806"
             style="fill:#f00000;fill-opacity:1;fill-rule:nonzero;stroke:#f00000;stroke-opacity:1"
             sodipodi:type="arc" />
        </g>
        <g
           transform="translate(0,103.91847)"
           id="g4808">
          <path
             style="fill:#f00000;fill-opacity:1;stroke:#f00000;stroke-width:1px;stroke-linecap:butt;stroke-linejoin:miter;stroke-opacity:1"
             d="m 364.71116,291.17691 -0.008,43.09952"
             id="path4810"
             inkscape:connector-curvature="0"
             sodipodi:nodetypes="cc" />
          <path
             sodipodi:type="arc"
             style="fill:#f00000;fill-opacity:1;fill-rule:nonzero;stroke:#f00000;stroke-opacity:1"
             id="path4812"
             sodipodi:cx="446.81183"
             sodipodi:cy="290.17029"
             sodipodi:rx="25.068649"
             sodipodi:ry="25.068649"
             d="m 471.88048,290.17029 c 0,13.84503 -11.22362,25.06865 -25.06865,25.06865 -13.84503,0 -25.06865,-11.22362 -25.06865,-25.06865 0,-13.84503 11.22362,-25.06865 25.06865,-25.06865 13.84503,0 25.06865,11.22362 25.06865,25.06865 z"
             transform="matrix(0.23420915,0,0,0.23420915,260.05975,220.84507)" />
        </g>
        <g
           transform="translate(0,51.959235)"
           id="g4814">
          <path
             sodipodi:nodetypes="cc"
             inkscape:connector-curvature="0"
             id="path4816"
             d="m 364.71116,291.17691 -0.008,43.09952"
             style="fill:#f00000;fill-opacity:1;stroke:#f00000;stroke-width:1px;stroke-linecap:butt;stroke-linejoin:miter;stroke-opacity:1" />
          <path
             transform="matrix(0.23420915,0,0,0.23420915,260.05975,220.84507)"
             d="m 471.88048,290.17029 c 0,13.84503 -11.22362,25.06865 -25.06865,25.06865 -13.84503,0 -25.06865,-11.22362 -25.06865,-25.06865 0,-13.84503 11.22362,-25.06865 25.06865,-25.06865 13.84503,0 25.06865,11.22362 25.06865,25.06865 z"
             sodipodi:ry="25.068649"
             sodipodi:rx="25.068649"
             sodipodi:cy="290.17029"
             sodipodi:cx="446.81183"
             id="path4818"
             style="fill:#f00000;fill-opacity:1;fill-rule:nonzero;stroke:#f00000;stroke-opacity:1"
             sodipodi:type="arc" />
        </g>
        <g
           id="g4820">
          <path
             style="fill:#f00000;fill-opacity:1;stroke:#f00000;stroke-width:1px;stroke-linecap:butt;stroke-linejoin:miter;stroke-opacity:1"
             d="m 364.71116,291.17691 -0.008,43.09952"
             id="path4822"
             inkscape:connector-curvature="0"
             sodipodi:nodetypes="cc" />
          <path
             sodipodi:type="arc"
             style="fill:#f00000;fill-opacity:1;fill-rule:nonzero;stroke:#f00000;stroke-opacity:1"
             id="path4824"
             sodipodi:cx="446.81183"
             sodipodi:cy="290.17029"
             sodipodi:rx="25.068649"
             sodipodi:ry="25.068649"
             d="m 471.88048,290.17029 c 0,13.84503 -11.22362,25.06865 -25.06865,25.06865 -13.84503,0 -25.06865,-11.22362 -25.06865,-25.06865 0,-13.84503 11.22362,-25.06865 25.06865,-25.06865 13.84503,0 25.06865,11.22362 25.06865,25.06865 z"
             transform="matrix(0.23420915,0,0,0.23420915,260.05975,220.84507)" />
        </g>
      </g>
    </g>
    <text
       sodipodi:linespacing="125%"
       id="text4888"
       y="425.69934"
       x="118.9818"
       style="font-size:24px;font-style:normal;font-weight:normal;line-height:125%;letter-spacing:0px;word-spacing:0px;fill:#cb00f6;fill-opacity:1;stroke:none;font-family:Sans"
       xml:space="preserve"><tspan
         y="425.69934"
         x="118.9818"
         id="tspan4890"
         sodipodi:role="line">v6.2</tspan></text>
    <g
       id="g4999">
      <g
         transform="translate(-221.22941,26.175444)"
         id="g4871">
        <g
           transform="matrix(0.70710678,0.70710678,-0.70710678,0.70710678,390.48127,7.8704352)"
           id="g4841"
           style="fill:#0000fe;fill-opacity:1;stroke:#0000fe;stroke-opacity:1">
          <path
             style="fill:#0000fe;fill-opacity:1;stroke:#0000fe;stroke-width:1px;stroke-linecap:butt;stroke-linejoin:miter;stroke-opacity:1"
             d="m 364.71116,291.17691 -0.008,43.09952"
             id="path4843"
             inkscape:connector-curvature="0"
             sodipodi:nodetypes="cc" />
          <path
             sodipodi:type="arc"
             style="fill:#0000fe;fill-opacity:1;fill-rule:nonzero;stroke:#0000fe;stroke-opacity:1"
             id="path4845"
             sodipodi:cx="446.81183"
             sodipodi:cy="290.17029"
             sodipodi:rx="25.068649"
             sodipodi:ry="25.068649"
             d="m 471.88048,290.17029 c 0,13.84503 -11.22362,25.06865 -25.06865,25.06865 -13.84503,0 -25.06865,-11.22362 -25.06865,-25.06865 0,-13.84503 11.22362,-25.06865 25.06865,-25.06865 13.84503,0 25.06865,11.22362 25.06865,25.06865 z"
             transform="matrix(0.23420915,0,0,0.23420915,260.05975,220.84507)" />
        </g>
        <g
           transform="matrix(0.70710678,0.70710678,-0.70710678,0.70710678,427.222,-28.870289)"
           id="g4847"
           style="fill:#0000fe;fill-opacity:1;stroke:#0000fe;stroke-opacity:1">
          <path
             sodipodi:nodetypes="cc"
             inkscape:connector-curvature="0"
             id="path4849"
             d="m 364.71116,291.17691 -0.008,43.09952"
             style="fill:#0000fe;fill-opacity:1;stroke:#0000fe;stroke-width:1px;stroke-linecap:butt;stroke-linejoin:miter;stroke-opacity:1" />
          <path
             transform="matrix(0.23420915,0,0,0.23420915,260.05975,220.84507)"
             d="m 471.88048,290.17029 c 0,13.84503 -11.22362,25.06865 -25.06865,25.06865 -13.84503,0 -25.06865,-11.22362 -25.06865,-25.06865 0,-13.84503 11.22362,-25.06865 25.06865,-25.06865 13.84503,0 25.06865,11.22362 25.06865,25.06865 z"
             sodipodi:ry="25.068649"
             sodipodi:rx="25.068649"
             sodipodi:cy="290.17029"
             sodipodi:cx="446.81183"
             id="path4851"
             style="fill:#0000fe;fill-opacity:1;fill-rule:nonzero;stroke:#0000fe;stroke-opacity:1"
             sodipodi:type="arc" />
        </g>
        <g
           transform="matrix(0.70710678,0.70710678,-0.70710678,0.70710678,463.96273,-65.61102)"
           id="g4853"
           style="fill:#0000fe;fill-opacity:1;stroke:#0000fe;stroke-opacity:1">
          <path
             style="fill:#0000fe;fill-opacity:1;stroke:#0000fe;stroke-width:1px;stroke-linecap:butt;stroke-linejoin:miter;stroke-opacity:1"
             d="m 364.71116,291.17691 -0.008,43.09952"
             id="path4855"
             inkscape:connector-curvature="0"
             sodipodi:nodetypes="cc" />
          <path
             sodipodi:type="arc"
             style="fill:#0000fe;fill-opacity:1;fill-rule:nonzero;stroke:#0000fe;stroke-opacity:1"
             id="path4857"
             sodipodi:cx="446.81183"
             sodipodi:cy="290.17029"
             sodipodi:rx="25.068649"
             sodipodi:ry="25.068649"
             d="m 471.88048,290.17029 c 0,13.84503 -11.22362,25.06865 -25.06865,25.06865 -13.84503,0 -25.06865,-11.22362 -25.06865,-25.06865 0,-13.84503 11.22362,-25.06865 25.06865,-25.06865 13.84503,0 25.06865,11.22362 25.06865,25.06865 z"
             transform="matrix(0.23420915,0,0,0.23420915,260.05975,220.84507)" />
        </g>
        <g
           transform="matrix(0.70710678,0.70710678,-0.70710678,0.70710678,500.70345,-102.35175)"
           id="g4859"
           style="fill:#0000fe;fill-opacity:1;stroke:#0000fe;stroke-opacity:1">
          <path
             sodipodi:nodetypes="cc"
             inkscape:connector-curvature="0"
             id="path4861"
             d="m 364.71116,291.17691 -0.008,43.09952"
             style="fill:#0000fe;fill-opacity:1;stroke:#0000fe;stroke-width:1px;stroke-linecap:butt;stroke-linejoin:miter;stroke-opacity:1" />
          <path
             transform="matrix(0.23420915,0,0,0.23420915,260.05975,220.84507)"
             d="m 471.88048,290.17029 c 0,13.84503 -11.22362,25.06865 -25.06865,25.06865 -13.84503,0 -25.06865,-11.22362 -25.06865,-25.06865 0,-13.84503 11.22362,-25.06865 25.06865,-25.06865 13.84503,0 25.06865,11.22362 25.06865,25.06865 z"
             sodipodi:ry="25.068649"
             sodipodi:rx="25.068649"
             sodipodi:cy="290.17029"
             sodipodi:cx="446.81183"
             id="path4863"
             style="fill:#0000fe;fill-opacity:1;fill-rule:nonzero;stroke:#0000fe;stroke-opacity:1"
             sodipodi:type="arc" />
        </g>
        <g
           transform="matrix(0.70710678,0.70710678,-0.70710678,0.70710678,537.44418,-139.09247)"
           id="g4865"
           style="fill:#0000fe;fill-opacity:1;stroke:#0000fe;stroke-opacity:1">
          <path
             style="fill:#0000fe;fill-opacity:1;stroke:#0000fe;stroke-width:1px;stroke-linecap:butt;stroke-linejoin:miter;stroke-opacity:1"
             d="m 364.71116,291.17691 -0.008,43.09952"
             id="path4867"
             inkscape:connector-curvature="0"
             sodipodi:nodetypes="cc" />
          <path
             sodipodi:type="arc"
             style="fill:#0000fe;fill-opacity:1;fill-rule:nonzero;stroke:#0000fe;stroke-opacity:1"
             id="path4869"
             sodipodi:cx="446.81183"
             sodipodi:cy="290.17029"
             sodipodi:rx="25.068649"
             sodipodi:ry="25.068649"
             d="m 471.88048,290.17029 c 0,13.84503 -11.22362,25.06865 -25.06865,25.06865 -13.84503,0 -25.06865,-11.22362 -25.06865,-25.06865 0,-13.84503 11.22362,-25.06865 25.06865,-25.06865 13.84503,0 25.06865,11.22362 25.06865,25.06865 z"
             transform="matrix(0.23420915,0,0,0.23420915,260.05975,220.84507)" />
        </g>
      </g>
      <text
         xml:space="preserve"
         style="font-size:24px;font-style:normal;font-weight:normal;line-height:125%;letter-spacing:0px;word-spacing:0px;fill:#0000fe;fill-opacity:1;stroke:none;font-family:Sans"
         x="-168.16684"
         y="536.88208"
         id="text4955"
         sodipodi:linespacing="125%"
         transform="matrix(0.70710678,-0.70710678,0.70710678,0.70710678,0,0)"><tspan
           sodipodi:role="line"
           id="tspan4957"
           x="-168.16684"
           y="536.88208">6.1 branch</tspan></text>
    </g>
    <g
       id="g5036">
      <g
         transform="matrix(0.70710678,0.70710678,-0.70710678,0.70710678,96.323356,-465.21698)"
         id="g5019">
        <g
           style="fill:#007500;fill-opacity:1;stroke:#007500;stroke-opacity:1"
           id="g4749"
           transform="translate(323.49584,220.35936)">
          <path
             sodipodi:nodetypes="cc"
             inkscape:connector-curvature="0"
             id="path4745"
             d="m 364.71116,291.17691 -0.008,43.09952"
             style="fill:#007500;fill-opacity:1;stroke:#007500;stroke-width:1px;stroke-linecap:butt;stroke-linejoin:miter;stroke-opacity:1" />
          <path
             transform="matrix(0.23420915,0,0,0.23420915,260.05975,220.84507)"
             d="m 471.88048,290.17029 c 0,13.84503 -11.22362,25.06865 -25.06865,25.06865 -13.84503,0 -25.06865,-11.22362 -25.06865,-25.06865 0,-13.84503 11.22362,-25.06865 25.06865,-25.06865 13.84503,0 25.06865,11.22362 25.06865,25.06865 z"
             sodipodi:ry="25.068649"
             sodipodi:rx="25.068649"
             sodipodi:cy="290.17029"
             sodipodi:cx="446.81183"
             id="path4743"
             style="fill:#007500;fill-opacity:1;fill-rule:nonzero;stroke:#007500;stroke-opacity:1"
             sodipodi:type="arc" />
        </g>
        <g
           style="fill:#007500;fill-opacity:1;stroke:#007500;stroke-opacity:1"
           id="g4753"
           transform="translate(323.49584,168.40013)">
          <path
             style="fill:#007500;fill-opacity:1;stroke:#007500;stroke-width:1px;stroke-linecap:butt;stroke-linejoin:miter;stroke-opacity:1"
             d="m 364.71116,291.17691 -0.008,43.09952"
             id="path4755"
             inkscape:connector-curvature="0"
             sodipodi:nodetypes="cc" />
          <path
             sodipodi:type="arc"
             style="fill:#007500;fill-opacity:1;fill-rule:nonzero;stroke:#007500;stroke-opacity:1"
             id="path4757"
             sodipodi:cx="446.81183"
             sodipodi:cy="290.17029"
             sodipodi:rx="25.068649"
             sodipodi:ry="25.068649"
             d="m 471.88048,290.17029 c 0,13.84503 -11.22362,25.06865 -25.06865,25.06865 -13.84503,0 -25.06865,-11.22362 -25.06865,-25.06865 0,-13.84503 11.22362,-25.06865 25.06865,-25.06865 13.84503,0 25.06865,11.22362 25.06865,25.06865 z"
             transform="matrix(0.23420915,0,0,0.23420915,260.05975,220.84507)" />
        </g>
        <g
           style="fill:#007500;fill-opacity:1;stroke:#007500;stroke-opacity:1"
           id="g4759"
           transform="translate(323.49584,116.44089)">
          <path
             sodipodi:nodetypes="cc"
             inkscape:connector-curvature="0"
             id="path4761"
             d="m 364.71116,291.17691 -0.008,43.09952"
             style="fill:#007500;fill-opacity:1;stroke:#007500;stroke-width:1px;stroke-linecap:butt;stroke-linejoin:miter;stroke-opacity:1" />
          <path
             transform="matrix(0.23420915,0,0,0.23420915,260.05975,220.84507)"
             d="m 471.88048,290.17029 c 0,13.84503 -11.22362,25.06865 -25.06865,25.06865 -13.84503,0 -25.06865,-11.22362 -25.06865,-25.06865 0,-13.84503 11.22362,-25.06865 25.06865,-25.06865 13.84503,0 25.06865,11.22362 25.06865,25.06865 z"
             sodipodi:ry="25.068649"
             sodipodi:rx="25.068649"
             sodipodi:cy="290.17029"
             sodipodi:cx="446.81183"
             id="path4763"
             style="fill:#007500;fill-opacity:1;fill-rule:nonzero;stroke:#007500;stroke-opacity:1"
             sodipodi:type="arc" />
        </g>
        <g
           style="fill:#007500;fill-opacity:1;stroke:#007500;stroke-opacity:1"
           id="g4765"
           transform="translate(323.49584,64.481655)">
          <path
             style="fill:#007500;fill-opacity:1;stroke:#007500;stroke-width:1px;stroke-linecap:butt;stroke-linejoin:miter;stroke-opacity:1"
             d="m 364.71116,291.17691 -0.008,43.09952"
             id="path4767"
             inkscape:connector-curvature="0"
             sodipodi:nodetypes="cc" />
          <path
             sodipodi:type="arc"
             style="fill:#007500;fill-opacity:1;fill-rule:nonzero;stroke:#007500;stroke-opacity:1"
             id="path4769"
             sodipodi:cx="446.81183"
             sodipodi:cy="290.17029"
             sodipodi:rx="25.068649"
             sodipodi:ry="25.068649"
             d="m 471.88048,290.17029 c 0,13.84503 -11.22362,25.06865 -25.06865,25.06865 -13.84503,0 -25.06865,-11.22362 -25.06865,-25.06865 0,-13.84503 11.22362,-25.06865 25.06865,-25.06865 13.84503,0 25.06865,11.22362 25.06865,25.06865 z"
             transform="matrix(0.23420915,0,0,0.23420915,260.05975,220.84507)" />
        </g>
        <g
           style="fill:#007500;fill-opacity:1;stroke:#007500;stroke-opacity:1"
           id="g4771"
           transform="translate(323.49584,12.52242)">
          <path
             sodipodi:nodetypes="cc"
             inkscape:connector-curvature="0"
             id="path4773"
             d="m 364.71116,291.17691 -0.008,43.09952"
             style="fill:#007500;fill-opacity:1;stroke:#007500;stroke-width:1px;stroke-linecap:butt;stroke-linejoin:miter;stroke-opacity:1" />
          <path
             transform="matrix(0.23420915,0,0,0.23420915,260.05975,220.84507)"
             d="m 471.88048,290.17029 c 0,13.84503 -11.22362,25.06865 -25.06865,25.06865 -13.84503,0 -25.06865,-11.22362 -25.06865,-25.06865 0,-13.84503 11.22362,-25.06865 25.06865,-25.06865 13.84503,0 25.06865,11.22362 25.06865,25.06865 z"
             sodipodi:ry="25.068649"
             sodipodi:rx="25.068649"
             sodipodi:cy="290.17029"
             sodipodi:cx="446.81183"
             id="path4775"
             style="fill:#007500;fill-opacity:1;fill-rule:nonzero;stroke:#007500;stroke-opacity:1"
             sodipodi:type="arc" />
        </g>
      </g>
      <text
         transform="matrix(0.70710678,-0.70710678,0.70710678,0.70710678,0,0)"
         sodipodi:linespacing="125%"
         id="text4959"
         y="456.27234"
         x="-87.556587"
         style="font-size:24px;font-style:normal;font-weight:normal;line-height:125%;letter-spacing:0px;word-spacing:0px;fill:#007500;fill-opacity:1;stroke:none;font-family:Sans"
         xml:space="preserve"><tspan
           y="456.27234"
           x="-87.556587"
           id="tspan4961"
           sodipodi:role="line">6.2 branch</tspan></text>
    </g>
  </g>
</svg>
